<?xml version="1.0" encoding="UTF-8"?>
<svg width="243px" height="356px" viewBox="0 0 243 356" version="1.1" xmlns="http://www.w3.org/2000/svg" xmlns:xlink="http://www.w3.org/1999/xlink">
    <!-- Generator: Sketch 49.3 (51167) - http://www.bohemiancoding.com/sketch -->
    <title>hot-air-balloon</title>
    <desc>Created with Sketch.</desc>
    <defs></defs>
    <g id="Page-1" stroke="none" stroke-width="1" fill="none" fill-rule="evenodd">
        <g id="hot-air-balloon" fill="#00F5B1" fill-rule="nonzero">
            <path d="M229.182918,66.299 C219.327918,46.862 204.584918,30.464 186.547918,18.874 C167.329918,6.526 144.743918,0 121.232918,0 C97.7219183,0 75.1349183,6.526 55.9169183,18.874 C37.8799183,30.464 23.1369183,46.862 13.2819183,66.299 C3.42691826,85.736 -1.08908174,107.32 0.221918259,128.72 C1.61891826,151.521 9.70191826,173.597 23.5969183,192.565 L50.1999183,228.877 C75.1619183,262.948 88.3559183,303.283 88.3559183,345.521 C88.3559183,351.043 92.8329183,355.521 98.3559183,355.521 L144.111918,355.521 C149.634918,355.521 154.111918,351.042 154.111918,345.52 C154.111918,303.283 167.305918,262.949 192.267918,228.877 L218.870918,192.565 C232.765918,173.597 240.848918,151.521 242.245918,128.72 C243.554918,107.32 239.037918,85.735 229.182918,66.299 Z M155.541918,26.023 C175.917918,48.538 181.884918,92.24 172.794918,152.405 C167.092918,190.146 156.987918,223.601 153.150918,235.54 L131.232918,235.54 L131.232918,21.305 C131.232918,21.024 131.213918,20.747 131.190918,20.471 C139.547918,21.25 147.607918,23.004 155.251918,25.669 C155.348918,25.786 155.437918,25.909 155.541918,26.023 Z M89.3139183,235.54 C85.4769183,223.601 75.3729183,190.147 69.6709183,152.407 C60.5809183,92.243 66.5469183,48.541 86.9219183,26.025 C87.0259183,25.91 87.1159183,25.787 87.2139183,25.668 C94.8579183,23.004 102.917918,21.249 111.274918,20.47 C111.251918,20.746 111.232918,21.022 111.232918,21.304 L111.232918,235.54 L89.3139183,235.54 Z M39.7299183,180.744 C16.7669183,149.4 13.5479183,109.999 31.1199183,75.344 C36.9469183,63.853 44.5539183,53.908 53.5259183,45.733 C36.8259183,96.13 50.0129183,167.047 61.0579183,209.855 L39.7299183,180.744 Z M108.129918,335.519 C107.818918,328.626 107.182918,321.788 106.235918,315.02 L136.229918,315.02 C135.281918,321.789 134.645918,328.627 134.334918,335.52 L108.129918,335.519 Z M139.987918,295.064 C139.697918,295.039 139.406918,295.02 139.109918,295.02 L103.353918,295.02 C103.057918,295.02 102.765918,295.039 102.475918,295.064 C99.2499183,281.48 94.7159183,268.259 88.9129183,255.54 L153.549918,255.54 C147.748918,268.259 143.213918,281.479 139.987918,295.064 Z M202.734918,180.744 L181.407918,209.854 C192.452918,167.045 205.638918,96.128 188.938918,45.731 C197.910918,53.906 205.517918,63.851 211.344918,75.343 C228.916918,109.998 225.697918,149.4 202.734918,180.744 Z" id="Shape"></path>
        </g>
    </g>
</svg>